<!-- Generator: Adobe Illustrator 25.2.1, SVG Export Plug-In  -->
<svg version="1.1" xmlns="http://www.w3.org/2000/svg" xmlns:xlink="http://www.w3.org/1999/xlink" x="0px" y="0px" width="17.9px"
	 height="20px" viewBox="0 0 17.9 20" style="overflow:visible;enable-background:new 0 0 17.9 20;" xml:space="preserve">
<style type="text/css">
	.st0{fill:#FFFFFF;}
</style>
<defs>
</defs>
<path class="st0" d="M17.8,9.9L17,9L17.5,8c0.1-0.2,0-0.4-0.2-0.6l-1-0.7l0.2-1.2c0-0.2-0.1-0.4-0.3-0.5l-1.1-0.3l-0.2-0.9
	c0.2-0.2,0.8-0.8,1.3-1.6c0.2-0.3,0.3-0.7,0.2-1.1c-0.1-0.4-0.3-0.7-0.6-0.9l-0.3-0.2c-0.6-0.3-1.4-0.2-1.7,0.4
	c-0.6,0.9-0.9,1.1-1.2,1.5C12.4,2,12.3,2,12.2,2L11,2.4l-0.9-0.8c-0.2-0.2-0.4-0.2-0.6,0L8.7,2.3L7.6,1.8c-0.2-0.1-0.4,0-0.6,0.1
	l-0.7,1L5.2,2.7C5,2.6,4.8,2.8,4.7,3L4.3,4.1L3.2,4.2C3,4.2,2.8,4.4,2.8,4.6L2.7,5.8L1.6,6.2C1.4,6.2,1.3,6.4,1.3,6.7l0.2,1.2
	l-1,0.7C0.4,8.6,0.3,8.8,0.4,9l0.5,1.1L0.1,11c-0.1,0.2-0.1,0.4,0,0.6l0.8,0.9l-0.5,1.1c-0.1,0.2,0,0.4,0.2,0.6l1,0.7l-0.2,1.2
	c0,0.2,0.1,0.4,0.3,0.5l1.1,0.3L3,17.9c0,0.2,0.2,0.4,0.4,0.4l1.2,0l0.6,1.1c0.1,0.2,0.3,0.3,0.5,0.2l1.1-0.4l0.9,0.8
	C7.8,20,7.9,20,8,20c0.1,0,0.2,0,0.3-0.1l0.9-0.7l1.1,0.5c0.2,0.1,0.4,0,0.6-0.1l0.7-1l1.2,0.2c0.2,0,0.4-0.1,0.5-0.3l0.4-1.1
	l1.2-0.1c0.2,0,0.4-0.2,0.4-0.4l0.1-1.2l1.1-0.4c0.2-0.1,0.3-0.3,0.3-0.5l-0.2-1.2l1-0.7c0.2-0.1,0.2-0.4,0.2-0.5L17,11.4l0.8-0.9
	C17.9,10.3,17.9,10.1,17.8,9.9z M5.9,8.4L5.1,8.7l0.2,0.8c0.1,0.3,0,0.5-0.3,0.7l-0.6,0.5l0.4,0.7C5,11.5,5,11.8,4.9,12l-0.3,0.7
	l0.7,0.4c0.2,0.1,0.4,0.3,0.4,0.6l0.1,1.4c0,0.4-0.3,0.7-0.7,0.7c0,0,0,0,0,0c-0.4,0-0.7-0.3-0.7-0.7l-0.1-1.1l-0.9-0.5
	C2.9,13.4,2.8,13,3,12.7l0.5-0.9l-0.6-0.9C2.7,10.6,2.7,10.2,3,10l0.8-0.6l-0.2-1C3.6,8,3.8,7.7,4.1,7.5l1-0.3l0.1-1
	c0-0.4,0.4-0.6,0.7-0.6l1,0.1l0.6-0.9c0.2-0.3,0.6-0.4,1-0.2l0.9,0.6l0.9-0.5c0.2-0.1,0.4-0.1,0.5,0C11,4.7,11.2,4.8,11.3,5
	c0.1,0.2,0.1,0.4,0,0.5c-0.1,0.2-0.2,0.3-0.3,0.4L9.7,6.6C9.4,6.7,9.2,6.7,9,6.5L8.3,6.1L7.9,6.8C7.8,7,7.5,7.1,7.3,7.1L6.5,7
	L6.4,7.8C6.3,8.1,6.2,8.3,5.9,8.4z M14.7,11.7l-0.8,0.6l0.2,1c0.1,0.3-0.1,0.7-0.5,0.8l-1,0.3l-0.1,1c0,0.4-0.4,0.6-0.7,0.6l-1-0.1
	l-0.6,0.9c-0.1,0.2-0.3,0.3-0.6,0.3c-0.1,0-0.3,0-0.4-0.1l-0.9-0.6L7.4,17c-0.2,0.1-0.4,0.1-0.5,0c-0.2-0.1-0.3-0.2-0.4-0.3
	c-0.1-0.2-0.1-0.4,0-0.5c0.1-0.2,0.2-0.3,0.3-0.4l1.3-0.7c0.2-0.1,0.5-0.1,0.7,0l0.6,0.4l0.4-0.6c0.1-0.2,0.4-0.3,0.6-0.3l0.8,0
	l0.1-0.8c0-0.3,0.2-0.5,0.5-0.6l0.8-0.3l-0.2-0.8c-0.1-0.3,0-0.5,0.3-0.7l0.6-0.5l-0.4-0.7c-0.1-0.2-0.2-0.5,0-0.7L13.2,9l-0.7-0.4
	c-0.2-0.1-0.4-0.3-0.4-0.6l-0.1-1.4c0-0.4,0.3-0.7,0.7-0.7c0.4,0,0.7,0.3,0.7,0.7l0.1,1.1l0.9,0.5c0.3,0.2,0.5,0.6,0.3,0.9l-0.5,0.9
	l0.6,0.9C15.1,11.1,15,11.5,14.7,11.7z"/>
</svg>
