<!-- Generator: Adobe Illustrator 25.2.1, SVG Export Plug-In  -->
<svg version="1.1" xmlns="http://www.w3.org/2000/svg" xmlns:xlink="http://www.w3.org/1999/xlink" x="0px" y="0px" width="70px"
	 height="60.8px" viewBox="0 0 70 60.8" style="overflow:visible;enable-background:new 0 0 70 60.8;" xml:space="preserve">
<style type="text/css">
	.st0{fill:#CEC044;}
	.st1{fill:#E4DA81;}
	.st2{fill:#EAE4AF;}
	.st3{fill:#E0C91E;}
	.st4{fill:#E8DA52;}
	.st5{fill:#F0E58F;}
	.st6{fill:#5F4040;}
</style>
<defs>
</defs>
<path id="Fill_1_2_" class="st0" d="M58.9,0.6L65.8,1l-4.1,6.7l6.8,3.9l-4.9,5l5.2,4.8l-5.6,3.8l3.6,6.9l-6.3,2.3l1.3,6.8l-6.5,0.7
	v6.5l-6.1-0.9l-1.5,5.6L42,50.9l-2.1,6.2l-5.2-3.6l-2.1,5.8l-4.4-5.2L23.4,59l-2.9-5.8l-6.4,3.8L13,50l-5.9,3l0.7-6.8L1,45.9
	l2.6-6.6l33.5-10.8L58.9,0.6z"/>
<path id="Fill_7_1_" class="st1" d="M3.5,38.8c2.8-3.5,6.3-6.3,10.3-8.2c14.4-7.1,18.3-7.8,29.1-19.1S59,0.4,59,0.4
	c10.3,14.7,6.7,35.9-9.1,45.8C28.8,59.5,13.8,53.5,3.5,38.8"/>
<path id="Fill_9_1_" class="st2" d="M58.7,0.5c8.2,14.7,4.1,34.2-10.9,43.7c-17.2,10.9-30.4,9-40.4,0C6,42.6,4.7,41,3.5,39.3
	c2.8-3.5,6.3-6.4,10.4-8.4c14.5-7.2,18.5-7.9,29.4-19.4C51.7,2.9,56.7,0.9,58.7,0.5"/>
<path id="Fill_16_1_" class="st3" d="M13.5,40c-0.9-5.7,8-8.2,14.9-9.5c3.5-4.7,8.3-7.3,13.7-9.6C44.6,16.1,50.3,7,55.4,9
	c5.3,2,5.3,12.2,1.4,21.2c-2.1,4.9-9.1,14-20.1,16.8C24.6,50.1,14.4,45.6,13.5,40"/>
<path id="Fill_18_1_" class="st4" d="M14,41.5c-0.2-0.5-0.4-1-0.5-1.5c-0.9-5.7,8-8.2,14.9-9.5c3.5-4.7,8.3-7.3,13.7-9.6
	C44.6,16.1,50.3,7,55.4,9c0.2,0.1,0.3,0.1,0.5,0.2c1.8,4.2,1,11.3-1.8,17.9C52,31.9,45,41,34,43.8C25.6,46.1,18.1,44.5,14,41.5"/>
<path id="Fill_20_1_" class="st5" d="M51,18.5c-2.1,2.3-2.8,4.8-4.4,3.4c-1.6-1.4-0.5-3.9,1.5-6.2s4.3-3.6,5.9-2.2
	S53.1,16.2,51,18.5"/>
<path class="st6" d="M60.5,14.5c-0.2-1.5-0.8-2.9-1.6-4.2c-0.7-1.1-1.8-2-3-2.4c-0.6-0.2-1.2-0.3-1.8-0.3c-2.1,0.2-4,1.1-5.5,2.5
	c-3.1,2.8-5.7,7.2-6.9,9.4c-0.2,0.1-0.4,0.3-0.5,0.5c-4.5,1.9-9.5,4.6-13.3,9.4c-5.6,1.1-9.6,2.5-12.1,4.2c-2.6,1.8-3.8,4-3.4,6.6
	c0.4,2.5,2.5,5,5.7,6.6c3.4,1.6,7,2.4,10.8,2.3c2.8,0,5.5-0.4,8.2-1.1c0,0,0,0,0,0c0,0,0,0,0,0c2.7-0.7,5.3-1.8,7.7-3.2
	c2.2-1.3,4.2-2.9,6.1-4.7c1.7-1.6,3.3-3.5,4.6-5.4c0.4-0.2,0.6-0.5,0.6-0.9c0.6-1,1.2-2.1,1.7-3.2C60.3,25,61.3,19,60.5,14.5z
	 M37.9,45.4c-0.1-1.3-0.3-2.5-0.6-3.7c-0.2-0.6-0.8-1-1.4-0.8c-0.6,0.2-1,0.8-0.8,1.4c0.4,1.2,0.6,2.5,0.6,3.7
	c-2.2,0.5-4.5,0.8-6.8,0.8c-3.3,0.1-6.7-0.7-9.7-2.1c-2.6-1.3-4.2-3.1-4.5-4.9c-0.3-1.6,0.5-3,2.4-4.3c2.9-2,7.7-3.1,11.1-3.8
	c1.4,1,2.6,2.2,3.4,3.6c0.4,0.5,1.1,0.7,1.6,0.3c0.5-0.4,0.7-1.1,0.3-1.6c0,0,0,0,0,0l0,0c-0.9-1.4-2.1-2.7-3.4-3.7
	c3.2-3.8,7.3-6.1,11.4-7.9c0.3,0.9,0.8,1.7,1.4,2.5c0.4,0.5,1.1,0.7,1.6,0.3c0.5-0.4,0.7-1.1,0.3-1.6c0,0,0,0,0,0
	c-0.7-0.8-1.1-1.7-1.4-2.7c1.1-2.2,3.6-6.5,6.6-9.1c1.5-1.3,2.7-2,3.9-2l0,0c0.4,0,0.7,0.1,1.1,0.2c1.6,0.6,2.7,2.3,3.2,4.9
	c0.7,4-0.2,9.6-2.5,14.8c-0.3,0.8-0.8,1.7-1.4,2.7c-0.1,0-0.1,0-0.2-0.1c-0.9-0.4-1.7-0.9-2.4-1.5c-0.5-0.4-1.2-0.3-1.6,0.2
	c-0.4,0.5-0.3,1.2,0.2,1.6c0,0,0,0,0,0c1,0.7,1.9,1.3,2.7,1.7C50,38.4,45,43.1,37.9,45.4z"/>
<path class="st6" d="M69.6,21.2l-4.3-3.9l4-4.1c0.1-0.1,0.1-0.2,0.2-0.2c0.3-0.6,0.1-1.3-0.4-1.6l-5.4-3.1c-0.1-0.2-0.1-0.3-0.2-0.5
	l3.3-5.3c0.1-0.2,0.2-0.3,0.2-0.5c0-0.6-0.4-1.2-1.1-1.2l-6.3-0.4C59.3,0.2,59,0,58.7,0c0,0-5.6-0.4-16.9,11.4
	c-8,8.4-12.2,10.8-19.8,14.5c-0.1,0-0.2,0-0.3,0.1c-4.2,2-13.5,5.5-19.4,12.9c-0.3,0.4-0.3,0.9,0,1.3c0,0,0,0.1,0.1,0.1l-2.2,5.5
	c-0.1,0.3-0.1,0.7,0.1,1.1c0.2,0.3,0.6,0.5,0.9,0.5l5.6,0.2l-0.6,5.5c0,0.4,0.1,0.8,0.5,1.1c0.4,0.2,0.8,0.3,1.2,0.1l4.5-2.2
	l0.9,5.3c0,0.1,0.1,0.3,0.1,0.4c0.3,0.6,1,0.7,1.6,0.4l5.3-3.1l2.3,4.6c0.1,0.1,0.1,0.2,0.2,0.3c0.5,0.5,1.2,0.5,1.7,0l1.6-1.5
	c0,0,0,0,0,0l0.1-0.1l0.9-0.9c0,0,0,0,0,0c0,0,0,0,0-0.1l1.3-1.3l1.4,1.6c0,0.1,0.1,0.1,0.1,0.2l2,2.4c0.1,0.2,0.3,0.3,0.5,0.3
	c0.6,0.2,1.3-0.1,1.5-0.7l1.5-4.3l4,2.7c0.1,0.1,0.2,0.1,0.3,0.1c0.6,0.2,1.3-0.1,1.5-0.7l1.7-5l4.7,1.7c0,0,0.1,0,0.1,0
	c0.6,0.2,1.3-0.2,1.4-0.8l1.2-4.6l5,0.8c0.3,0.1,0.7,0,0.9-0.3c0.3-0.2,0.4-0.5,0.4-0.9v-5.3l5.5-0.5c0.3,0,0.6-0.2,0.8-0.5
	c0.2-0.3,0.3-0.6,0.2-0.9l-1.1-5.8l1.3-0.5c0,0,0.1,0,0.1,0l3.8-1.5c0.3-0.1,0.5-0.4,0.6-0.7c0.1-0.3,0.1-0.6-0.1-0.9l-1.5-2.9
	c0-0.1,0-0.2-0.1-0.3l-1.5-2.8l4.7-3.1c0.1-0.1,0.2-0.1,0.2-0.2C70.1,22.4,70.1,21.7,69.6,21.2z M63.7,3l-1.4,2.2
	c-0.4-0.8-0.8-1.6-1.3-2.4L63.7,3z M2.9,45.2l1.1-2.7c0.8,1,1.6,1.9,2.4,2.8L2.9,45.2z M62.6,24.8c-0.5,0.3-0.7,1-0.4,1.5l1,1.9
	c0,0,0,0,0,0l1.9,3.8l-1.8,0.7c0,0-0.1,0-0.1,0l-3,1.1c-0.5,0.2-0.8,0.7-0.7,1.3l1.1,5.5l-5.3,0.5c-0.6,0.1-1,0.6-1,1.2v5l-4.7-0.7
	c-0.6-0.1-1.1,0.3-1.3,0.8L47,51.9l-4.7-1.7c0,0,0,0,0,0c-0.6-0.2-1.3,0.1-1.5,0.7l-1.6,4.7l-3.9-2.7c-0.1-0.1-0.2-0.1-0.3-0.1
	c-0.6-0.2-1.3,0.1-1.5,0.7l-1.4,3.9l0,0c0,0,0,0,0-0.1l-3-3.6c-0.2-0.2-0.5-0.4-0.8-0.4c-0.3,0-0.6,0.1-0.9,0.3l-2.2,2.2
	c0,0,0,0,0,0l-1.5,1.4L21.6,53c0,0,0,0,0-0.1c-0.3-0.6-1-0.7-1.6-0.4l-4.9,2.8l-0.8-5.2c0-0.1-0.1-0.2-0.1-0.3
	c-0.3-0.6-1-0.8-1.6-0.5l-4,2l0.5-4.6c0-0.3-0.1-0.6-0.3-0.9c0,0-0.1,0-0.1-0.1c0.2-0.4,0.2-1-0.2-1.3c-1-1.1-2-2.2-2.9-3.3
	c-0.1,0-0.2-0.1-0.2-0.1C5,40.5,4.7,40,4.8,39.7C5.2,38.8,6,38,7.2,37.2c4.9-4.2,9.5-6.3,13-7.9c0,0,0.1,0,0.1,0
	c9.7-4.6,14-6.7,23.1-16.3c6.1-6.4,10.3-8.9,12.7-10c0.4-0.2,0.9-0.5,1.5-0.4c0.6,0.1,0.9,0.4,1.2,0.9c0.8,1.3,1.5,2.7,2.1,4.1
	l-0.2,0.3c0,0,0,0,0,0c-0.3,0.6-0.1,1.3,0.4,1.6l0.6,0.4c0.4,1.2,0.7,2.3,0.9,3.6c0.1,0.6,0.7,1,1.3,0.9c0.6-0.1,1.1-0.7,0.9-1.3
	c-0.1-0.5-0.2-1-0.3-1.4l2,1.1l-3.8,3.8c0,0,0,0,0,0c-0.4,0.5-0.4,1.2,0.1,1.6l4.1,3.7L62.6,24.8z"/>
</svg>
