<!-- Generator: Adobe Illustrator 25.2.1, SVG Export Plug-In  -->
<svg version="1.1" xmlns="http://www.w3.org/2000/svg" xmlns:xlink="http://www.w3.org/1999/xlink" x="0px" y="0px" width="16px"
	 height="10.8px" viewBox="0 0 16 10.8" style="overflow:visible;enable-background:new 0 0 16 10.8;" xml:space="preserve">
<defs>
</defs>
<g>
	<path d="M13.8,8.8H2.2C2,8.8,1.8,9,1.8,9.2v1.1c0,0.2,0.2,0.4,0.4,0.4h11.6c0.2,0,0.4-0.2,0.4-0.4V9.2C14.3,9,14.1,8.8,13.8,8.8z"
		/>
	<path d="M15.6,1.8c-0.4-0.3-1-0.3-1.3,0.1c-0.3,0.4-0.3,1,0.1,1.3l-1.2,1.2C12.9,4.8,12.5,5,12,5c-0.5,0-1-0.3-1.3-0.7l-2-2.7
		c0.2-0.2,0.3-0.4,0.3-0.7C8.9,0.4,8.5,0,8,0C7.5,0,7.1,0.4,7.1,0.9c0,0.2,0.1,0.5,0.3,0.7l-2,2.7c0,0.1-0.1,0.1-0.2,0.2
		c-0.7,0.7-1.7,0.6-2.4,0L1.5,3.2C1.7,3.1,1.8,3,1.8,2.8c0.2-0.5-0.1-1-0.6-1.2C0.7,1.4,0.2,1.7,0,2.2c-0.2,0.5,0.1,1,0.6,1.2
		c0,0,0,0.1,0,0.1l1,4c0,0.2,0.2,0.3,0.4,0.3H8l5.9,0c0.2,0,0.4-0.1,0.4-0.3l1-3.9c0,0,0-0.1,0-0.1c0.2-0.1,0.3-0.2,0.4-0.3
		C16.1,2.7,16.1,2.1,15.6,1.8z"/>
</g>
</svg>
