<!-- Generator: Adobe Illustrator 25.2.1, SVG Export Plug-In  -->
<svg version="1.1" xmlns="http://www.w3.org/2000/svg" xmlns:xlink="http://www.w3.org/1999/xlink" x="0px" y="0px" width="32px"
	 height="29.4px" viewBox="0 0 32 29.4" style="overflow:visible;enable-background:new 0 0 32 29.4;" xml:space="preserve">
<style type="text/css">
	.st0{fill-rule:evenodd;clip-rule:evenodd;}
</style>
<defs>
</defs>
<path class="st0" d="M31.7,14.8l-5-5v-7c0-0.6-0.5-1.1-1.1-1.1h-2.1c-0.6,0-1.1,0.5-1.1,1.1v2.8l-4.9-4.9c-0.8-0.8-2.2-0.8-3,0
	L0.3,14.8c-0.4,0.4-0.4,1.1,0,1.5s1.1,0.4,1.5,0l1.4-1.4v11.3c0,1.8,1.4,3.2,3.2,3.2h19.2c1.8,0,3.2-1.4,3.2-3.2V14.9l1.4,1.4
	c0.4,0.4,1.1,0.4,1.5,0S32.1,15.2,31.7,14.8z M26.7,26.2c0,0.6-0.5,1.1-1.1,1.1H6.4c-0.6,0-1.1-0.5-1.1-1.1V12.8L16,2.1l10.7,10.7
	V26.2z"/>
</svg>
