<!-- Generator: Adobe Illustrator 25.2.1, SVG Export Plug-In  -->
<svg version="1.1" xmlns="http://www.w3.org/2000/svg" xmlns:xlink="http://www.w3.org/1999/xlink" x="0px" y="0px" width="9.75px"
	 height="11.25px" viewBox="0 0 9.75 11.25" style="overflow:visible;enable-background:new 0 0 9.75 11.25;" xml:space="preserve">
<style type="text/css">
	.st0{fill-rule:evenodd;clip-rule:evenodd;}
</style>
<defs>
</defs>
<path class="st0" d="M9,1.5H0.75v0.75H9V1.5z M3,4.13c0.21,0,0.38,0.17,0.38,0.38V9c0,0.21-0.17,0.38-0.38,0.38S2.62,9.21,2.62,9
	V4.5C2.62,4.29,2.79,4.13,3,4.13z M4.88,4.13c0.21,0,0.38,0.17,0.38,0.38V9c0,0.21-0.17,0.38-0.38,0.38S4.5,9.21,4.5,9V4.5
	C4.5,4.29,4.67,4.13,4.88,4.13z M6.75,4.13c0.21,0,0.38,0.17,0.38,0.38V9c0,0.21-0.17,0.38-0.38,0.38S6.38,9.21,6.38,9V4.5
	C6.38,4.29,6.54,4.13,6.75,4.13z M7.79,3H1.96L1.88,3.04v6.71c0,0.41,0.34,0.75,0.75,0.75h4.5c0.41,0,0.75-0.34,0.75-0.75V3.04
	L7.79,3z M5.62,0c0.41,0,0.75,0.34,0.75,0.75H9c0.41,0,0.75,0.34,0.75,0.75v0.75C9.75,2.66,9.41,3,9,3H8.62v6.75
	c0,0.83-0.67,1.5-1.5,1.5h-4.5c-0.83,0-1.5-0.67-1.5-1.5V3H0.75C0.34,3,0,2.66,0,2.25V1.5c0-0.41,0.34-0.75,0.75-0.75h2.62
	C3.38,0.34,3.71,0,4.12,0H5.62z"/>
</svg>
