<!-- Generator: Adobe Illustrator 25.2.1, SVG Export Plug-In  -->
<svg version="1.1" xmlns="http://www.w3.org/2000/svg" xmlns:xlink="http://www.w3.org/1999/xlink" x="0px" y="0px" width="11.9px"
	 height="11.9px" viewBox="0 0 11.9 11.9" style="overflow:visible;enable-background:new 0 0 11.9 11.9;" xml:space="preserve">
<style type="text/css">
	.st0{fill-rule:evenodd;clip-rule:evenodd;}
</style>
<defs>
</defs>
<path class="st0" d="M11.61,0.29c0.39,0.39,0.39,1.02,0,1.41L7.36,5.95l4.24,4.24c0.39,0.39,0.39,1.02,0,1.41
	c-0.39,0.39-1.02,0.39-1.41,0L5.95,7.36l-4.24,4.24C1.32,12,0.68,12,0.29,11.61c-0.39-0.39-0.39-1.02,0-1.41l4.24-4.24L0.29,1.71
	c-0.39-0.39-0.39-1.02,0-1.41c0.39-0.39,1.02-0.39,1.41,0l4.24,4.24l4.24-4.24C10.58-0.1,11.22-0.1,11.61,0.29z"/>
</svg>
